:SAMPLES-PER-SECOND 30
:FULLY-SPECIFIED
:DEGREES
486
root  -0.361527 38.4547 1.30086 -2.19055 -81.7579 -1.83167
RightUpLeg  6.19316 -15.3969 -23.1205
RightLeg  1.56036 -2.41744 0.582903
RightFoot  4.87128 -3.90477 27.1743
RightToes  -6.40286e-010 0 -3.6325e-017
Spine  6.56908 -0.404406 2.63477
Spine1  3.49307 -0.0978877 -0.0302897
HEad  -3.37104 -25.6229 3.9318
LeftShoulder1  2.3264 -4.67002 -22.1444
LeftArm  -5.44133 18.2648 -47.8508
LeftForeArm  2.76732 -14.0176 -9.71865
LeftHand  -0.661912 2.13448 23.4293
RightShoulder  1.05752 0.832467 17.9011
RightArm  8.46437 -15.0348 55.2716
RightForeArm  7.79493 17.7611 8.17828
RightHand  -0.555196 -1.34731 -15.8437
LeftUpLeg  1.27167 15.761 21.8744
LeftLeg  -1.06197 -14.2572 1.81483
LeftFoot  3.29798 3.63942 -27.9774
LeftToes  -2.09187e-010 -4.93792e-011 -8.21189e-011
487
root  -0.370935 38.4547 1.30086 -2.03027 -81.6608 -1.89111
RightUpLeg  6.20287 -15.4132 -23.1208
RightLeg  1.46428 -2.53016 0.637153
RightFoot  4.89165 -3.91286 27.1957
RightToes  -6.40286e-010 0 -3.6325e-017
Spine  6.49333 -0.37718 2.48687
Spine1  3.29157 -0.120753 0.184237
HEad  -3.3919 -25.4229 4.04716
LeftShoulder1  2.34976 -4.69797 -22.3438
LeftArm  -5.52097 18.1998 -48.0564
LeftForeArm  3.44596 -13.7902 -9.83183
LeftHand  -0.631413 2.22533 22.9914
RightShoulder  1.06722 0.891299 17.7841
RightArm  8.16705 -14.3576 55.2483
RightForeArm  8.58646 17.3805 8.44787
RightHand  -0.58531 -1.17294 -16.0302
LeftUpLeg  1.16964 15.737 21.827
LeftLeg  -1.14811 -14.2163 1.84674
LeftFoot  3.34536 3.65598 -28.0132
LeftToes  -2.09187e-010 -4.93792e-011 -8.21189e-011
488
root  -0.380172 38.4547 1.30018 -1.81799 -81.711 -2.00366
RightUpLeg  6.11948 -15.4101 -23.083
RightLeg  1.41166 -2.53611 0.656536
RightFoot  4.90186 -3.92508 27.2608
RightToes  -6.40286e-010 0 -3.6325e-017
Spine  6.49975 -0.281356 2.43636
Spine1  2.91889 -0.0444432 0.270466
HEad  -3.22451 -25.0756 4.15735
LeftShoulder1  2.38474 -4.7475 -22.6109
LeftArm  -5.4847 18.0694 -48.0669
LeftForeArm  4.38506 -13.4061 -10.0375
LeftHand  -0.636426 2.09851 22.2965
RightShoulder  1.06529 0.891375 17.7359
RightArm  8.05059 -13.8187 55.0581
RightForeArm  9.05047 16.9933 8.745
RightHand  -0.612564 -1.0503 -16.3151
LeftUpLeg  1.1383 15.7668 21.851
LeftLeg  -1.21233 -14.1386 1.82522
LeftFoot  3.36156 3.66802 -28.0717
LeftToes  -2.09187e-010 -4.93792e-011 -8.21189e-011
489
root  -0.392348 38.4546 1.29989 -1.59741 -81.8367 -2.2074
RightUpLeg  6.07813 -15.3895 -23.0342
RightLeg  1.38423 -2.46188 0.653643
RightFoot  4.89437 -3.93494 27.3382
RightToes  -6.40286e-010 0 -3.6325e-017
Spine  6.65103 -0.143426 2.49565
Spine1  2.41834 0.11534 0.1935
HEad  -3.05245 -24.7261 4.27488
LeftShoulder1  2.42471 -4.85342 -22.7301
LeftArm  -5.25421 17.9588 -48.1127
LeftForeArm  5.24547 -13.0183 -10.2667
LeftHand  -0.660542 1.92451 21.9891
RightShoulder  1.05918 0.87027 17.7117
RightArm  7.6316 -13.447 54.8168
RightForeArm  9.50332 16.5102 9.10366
RightHand  -0.623701 -1.01763 -16.4901
LeftUpLeg  1.23351 15.8491 21.953
LeftLeg  -1.26701 -14.1048 1.77708
LeftFoot  3.37215 3.67793 -28.1279
LeftToes  -2.09187e-010 -4.93792e-011 -8.21189e-011
490
root  -0.412523 38.4545 1.30117 -1.43054 -81.952 -2.38037
RightUpLeg  6.07013 -15.3755 -23.0036
RightLeg  1.37603 -2.36915 0.652876
RightFoot  4.86853 -3.93585 27.3856
RightToes  -6.40286e-010 0 -3.6325e-017
Spine  6.85562 -0.0050946 2.61434
Spine1  1.85188 0.298976 0.0201139
HEad  -3.04487 -24.3936 4.34161
LeftShoulder1  2.44953 -4.94595 -22.705
LeftArm  -5.0221 17.8907 -48.2589
LeftForeArm  5.82623 -12.6842 -10.4726
LeftHand  -0.685234 1.83603 22.2468
RightShoulder  1.06387 0.900827 17.6441
RightArm  6.93095 -13.3144 54.5704
RightForeArm  10.0388 16.0286 9.43401
RightHand  -0.617753 -1.06458 -16.5055
LeftUpLeg  1.3543 15.9316 22.0528
LeftLeg  -1.30669 -14.0989 1.73294
LeftFoot  3.36929 3.68149 -28.1502
LeftToes  -2.09187e-010 -4.93792e-011 -8.21189e-011
491
root  -0.437981 38.4545 1.30583 -1.57532 -82.0328 -2.18811
RightUpLeg  6.01182 -15.3903 -23.029
RightLeg  1.40799 -2.27941 0.64706
RightFoot  4.82237 -3.92899 27.4141
RightToes  -6.40286e-010 0 -3.6325e-017
Spine  6.99088 0.100334 2.74863
Spine1  1.33056 0.463833 -0.244732
HEad  -3.25548 -24.0236 4.33828
LeftShoulder1  2.45163 -4.97428 -22.6287
LeftArm  -4.96896 17.8076 -48.3908
LeftForeArm  6.14858 -12.3789 -10.647
LeftHand  -0.713467 1.7368 22.5401
RightShoulder  1.08553 1.00042 17.5833
RightArm  6.39233 -13.3704 54.2869
RightForeArm  10.4726 15.6803 9.66152
RightHand  -0.615638 -1.1074 -16.6084
LeftUpLeg  1.39327 15.9443 22.0493
LeftLeg  -1.30651 -14.0416 1.7086
LeftFoot  3.34423 3.68231 -28.1575
LeftToes  -2.09187e-010 -4.93792e-011 -8.21189e-011
492
root  -0.465042 38.4544 1.31248 -2.1178 -82.0884 -1.58459
RightUpLeg  5.92946 -15.4198 -23.1108
RightLeg  1.48745 -2.18787 0.614004
RightFoot  4.74939 -3.91744 27.4548
RightToes  -6.40286e-010 0 -3.6325e-017
Spine  7.06684 0.170336 2.8819
Spine1  0.921063 0.605863 -0.602085
HEad  -3.6041 -23.6488 4.32624
LeftShoulder1  2.45287 -5.0101 -22.5157
LeftArm  -4.94653 17.7096 -48.4287
LeftForeArm  6.26738 -12.1685 -10.7677
LeftHand  -0.730221 1.62874 22.4121
RightShoulder  1.11418 1.11067 17.6299
RightArm  5.96471 -13.4716 53.9291
RightForeArm  10.9229 15.3681 9.8598
RightHand  -0.63437 -1.06129 -16.9339
LeftUpLeg  1.40374 15.8872 21.9536
LeftLeg  -1.29742 -13.9126 1.7088
LeftFoot  3.32724 3.68266 -28.1729
LeftToes  -2.09187e-010 -4.93792e-011 -8.21189e-011
493
root  -0.498543 38.4544 1.31378 -2.63196 -82.1103 -1.07727
RightUpLeg  5.94712 -15.4256 -23.1838
RightLeg  1.55756 -2.12663 0.565333
RightFoot  4.66238 -3.90361 27.5032
RightToes  -6.40286e-010 0 -3.6325e-017
Spine  7.16459 0.216763 3.02657
Spine1  0.585417 0.726639 -0.973117
HEad  -3.99046 -23.334 4.34058
LeftShoulder1  2.47348 -5.12488 -22.3631
LeftArm  -4.65953 17.6553 -48.3963
LeftForeArm  6.21999 -12.1488 -10.8164
LeftHand  -0.699977 1.71599 21.9915
RightShoulder  1.1361 1.17914 17.7542
RightArm  5.24268 -13.5448 53.5277
RightForeArm  11.6274 14.894 10.1474
RightHand  -0.650595 -1.01859 -17.202
LeftUpLeg  1.50882 15.8442 21.8949
LeftLeg  -1.35735 -13.8049 1.72432
LeftFoot  3.3448 3.68235 -28.1757
LeftToes  -2.09187e-010 -4.93792e-011 -8.21189e-011
494
root  -0.544476 38.4545 1.3095 -2.74316 -82.085 -1.02893
RightUpLeg  6.10515 -15.402 -23.2062
RightLeg  1.55065 -2.13198 0.538901
RightFoot  4.59166 -3.89194 27.54
RightToes  -6.40286e-010 0 -3.6325e-017
Spine  7.26392 0.237797 3.18088
Spine1  0.299151 0.807355 -1.26171
HEad  -4.39204 -23.0462 4.30766
LeftShoulder1  2.50035 -5.25982 -22.2205
LeftArm  -4.06123 17.6225 -48.344
LeftForeArm  6.09315 -12.2547 -10.8311
LeftHand  -0.639118 1.99389 21.7118
RightShoulder  1.14901 1.2214 17.8147
RightArm  4.32153 -13.6114 53.1774
RightForeArm  12.3847 14.2716 10.5202
RightHand  -0.627164 -1.15896 -17.117
LeftUpLeg  1.70426 15.8657 21.9431
LeftLeg  -1.49235 -13.8178 1.73834
LeftFoot  3.37191 3.68201 -28.1586
LeftToes  -2.09187e-010 -4.93792e-011 -8.21189e-011
495
root  -0.597652 38.4547 1.30564 -2.72986 -82.0282 -1.08301
RightUpLeg  6.29834 -15.3877 -23.2283
RightLeg  1.48648 -2.16721 0.544168
RightFoot  4.5424 -3.88595 27.5804
RightToes  -6.40286e-010 0 -3.6325e-017
Spine  7.27711 0.226745 3.28932
Spine1  0.101184 0.831889 -1.44043
HEad  -4.80505 -22.7198 4.12579
LeftShoulder1  2.51298 -5.32952 -22.1336
LeftArm  -3.40729 17.5261 -48.2842
LeftForeArm  5.9696 -12.3147 -10.8735
LeftHand  -0.610641 2.15445 21.758
RightShoulder  1.16155 1.28005 17.7742
RightArm  3.71327 -13.6936 52.9162
RightForeArm  12.8043 13.712 10.868
RightHand  -0.580582 -1.42705 -16.8946
LeftUpLeg  1.86581 15.8997 22.0115
LeftLeg  -1.60722 -13.9228 1.74526
LeftFoot  3.36972 3.68295 -28.1666
LeftToes  -2.09187e-010 -4.93792e-011 -8.21189e-011
496
root  -0.64685 38.4551 1.30575 -3.02759 -81.9695 -0.769653
RightUpLeg  6.42011 -15.4033 -23.3051
RightLeg  1.43948 -2.17316 0.549982
RightFoot  4.48848 -3.88388 27.6554
RightToes  -6.40286e-010 0 -3.6325e-017
Spine  7.23234 0.191003 3.30237
Spine1  -0.0590022 0.810776 -1.53942
HEad  -5.14864 -22.3749 3.77335
LeftShoulder1  2.52032 -5.36399 -22.1043
LeftArm  -2.99968 17.3811 -48.1869
LeftForeArm  5.90422 -12.2493 -10.9562
LeftHand  -0.630898 2.05954 21.8479
RightShoulder  1.18071 1.36098 17.7615
RightArm  3.46645 -13.7938 52.653
RightForeArm  12.9717 13.2978 11.1369
RightHand  -0.560852 -1.58325 -16.9707
LeftUpLeg  1.91901 15.8821 21.9921
LeftLeg  -1.62917 -13.9955 1.74986
LeftFoot  3.33866 3.6816 -28.2133
LeftToes  -2.09187e-010 -4.93792e-011 -8.21189e-011
